<?xml version="1.0" standalone="no"?>
<!DOCTYPE svg PUBLIC "-//W3C//DTD SVG 20010904//EN"
 "http://www.w3.org/TR/2001/REC-SVG-20010904/DTD/svg10.dtd">
<svg version="1.0" xmlns="http://www.w3.org/2000/svg"
 width="128.000000pt" height="128.000000pt" viewBox="0 0 128.000000 128.000000"
 preserveAspectRatio="xMidYMid meet">

<g transform="translate(0.000000,128.000000) scale(0.100000,-0.100000)"
fill="#000000" stroke="none">
<path d="M373 1081 l-183 -188 0 -278 0 -278 -95 -118 c-80 -99 -95 -124 -95
-154 0 -23 5 -35 14 -35 7 0 67 11 132 24 66 13 173 32 239 41 66 9 135 18
153 21 l32 5 0 84 0 85 70 0 70 0 0 -85 0 -84 33 -5 c17 -3 97 -15 177 -26 80
-12 187 -30 239 -41 123 -25 121 -25 121 14 0 26 -19 56 -100 157 l-100 124 0
280 0 281 -185 185 -185 185 0 -308 0 -307 -70 0 -70 0 0 305 c0 168 -3 305
-7 304 -5 0 -90 -85 -190 -188z m263 -519 l156 3 -1 243 c-1 149 2 242 8 242
5 0 52 -45 104 -100 l94 -100 6 -157 c4 -87 7 -190 7 -229 l0 -71 -51 -7 c-28
-4 -54 -5 -56 -2 -3 3 0 73 6 157 7 83 10 154 6 157 -3 3 -5 -3 -5 -14 0 -10
-9 -104 -20 -209 -11 -104 -17 -192 -12 -196 4 -4 32 -17 62 -30 63 -26 193
-99 187 -105 -2 -2 -41 3 -88 11 -46 8 -119 18 -161 21 l-78 7 0 98 0 99 -160
0 -160 0 0 -99 0 -98 -77 -7 c-43 -4 -120 -15 -170 -25 -51 -10 -93 -16 -93
-14 0 2 31 41 70 86 l70 82 0 217 0 216 43 36 c46 39 33 48 -22 15 -18 -11
-35 -19 -37 -17 -1 2 1 20 5 40 6 27 35 66 107 143 l99 105 3 -250 2 -251 156
3z m324 -224 c0 -6 7 -8 15 -4 9 3 15 0 15 -9 0 -8 25 -44 56 -80 l56 -66 -54
38 c-30 21 -78 49 -106 62 -51 24 -60 38 -46 74 4 12 11 13 35 5 16 -5 29 -14
29 -20z"/>
<path d="M365 452 l-7 -158 -43 -23 c-24 -13 -54 -34 -67 -48 l-23 -26 45 27
c25 15 60 35 78 43 l32 17 0 163 c0 90 -2 163 -4 163 -2 0 -7 -71 -11 -158z"/>
<path d="M495 470 c7 -12 238 -12 275 0 15 5 -36 8 -128 9 -100 1 -151 -2
-147 -9z"/>
</g>
</svg>
